<svg xmlns="http://www.w3.org/2000/svg" viewBox="0 0 15.16 11.11"><g id="レイヤー_2" data-name="レイヤー 2"><g id="design"><path d="M14.79,0c-.86,0-1.72,0-2.58,0a.41.41,0,0,0-.42.32C11.15,2.55,10.59,4.8,9.94,7c-2.86,0-5.72,0-8.58,0a.46.46,0,0,0,0,.91c2.94,0,5.88,0,8.82,0a.52.52,0,0,0,.56-.42c.6-2.2,1.19-4.4,1.81-6.6.76-.07,1.54,0,2.3-.05A.45.45,0,0,0,14.79,0Z"/><path d="M1.85,6.07h7a.48.48,0,0,0,.55-.34c.46-1.7.89-3.39,1.34-5.09A.48.48,0,0,0,10.28,0C7,0,3.67,0,.36,0A.47.47,0,0,0,0,.68C.46,2.34.87,4,1.31,5.69A.49.49,0,0,0,1.85,6.07Zm4.48-.93H4.6a2.34,2.34,0,0,1-.06-.7c.59,0,1.2,0,1.8,0C6.44,4.65,6.35,4.92,6.33,5.14Zm.12-1.68a10.16,10.16,0,0,1-2,0,4.9,4.9,0,0,1,0-.77,16,16,0,0,1,2.08,0A4.21,4.21,0,0,1,6.45,3.46ZM7.55.92c.72,0,1.44,0,2.17,0a5,5,0,0,1-.22.87c-.66,0-1.32,0-2,0A2.32,2.32,0,0,1,7.55.92Zm-.12,1.8c.6,0,1.21,0,1.82,0C9.19,3,9.2,3.3,9,3.5c-.53,0-1.08,0-1.61,0A3,3,0,0,1,7.43,2.72ZM7.31,4.45c.51,0,1,0,1.51,0a5.69,5.69,0,0,1-.18.68c-.45,0-.9,0-1.35,0A3.19,3.19,0,0,1,7.31,4.45ZM4.31.91h2.3a8.11,8.11,0,0,1-.05.86c-.73,0-1.46,0-2.2,0A3.66,3.66,0,0,1,4.31.91ZM3.65,5.14c-.51,0-1,0-1.53,0a2.88,2.88,0,0,1-.18-.7c.55,0,1.1,0,1.65,0A3.22,3.22,0,0,1,3.65,5.14ZM3.53,3.51c-.61,0-1.22,0-1.83,0a4.13,4.13,0,0,1-.19-.77,16.17,16.17,0,0,1,2,0A4,4,0,0,1,3.53,3.51ZM1.05.91c.78,0,1.55,0,2.32,0a6.12,6.12,0,0,1,0,.86c-.71,0-1.42,0-2.13,0A4.06,4.06,0,0,1,1.05.91Z"/><path d="M3,9a1.09,1.09,0,0,0,.53,2.1,1.1,1.1,0,0,0,.86-1.32A1.07,1.07,0,0,0,3,9Z"/><path d="M8.48,9a1.09,1.09,0,1,0,1.31,1A1.1,1.1,0,0,0,8.48,9Z"/></g></g></svg>