<?xml version="1.0" encoding="UTF-8"?><svg id="_レイヤー_2" xmlns="http://www.w3.org/2000/svg" viewBox="0 0 15 17.96"><defs><style>.cls-1{fill:#fff;}</style></defs><g id="_レイヤー_1-2"><g><path class="cls-1" d="M15,3.55s0-.04,0-.06c-.01-.1-.06-.2-.13-.27l-.31-.31c-.79-.79-1.59-1.59-2.38-2.38l-.38-.38c-.09-.09-.19-.13-.3-.13-.01,0-.03,0-.04,0-.06,0-.11,0-.17,0H3.03c-.14,0-.25,.05-.32,.13,0,0-.01,.01-.02,.02,0,0,0,0,0,0-.08,.08-.13,.18-.13,.32V1.77h.95s.01-.38,0-.81h7.46V3.55c0,.26,.22,.48,.48,.48h2.59V14.46h-.81v.95h1.29c.26,0,.48-.22,.48-.48V3.67s0-.08,0-.12c0,0,0,0,0,0,0,0,0,0,0,0Zm-3.07-.48V1.63l1.44,1.44h-1.44Z"/><path class="cls-1" d="M12.46,6.09s0-.04,0-.06c-.01-.1-.06-.2-.13-.27l-.07-.07h0l-.24-.24c-.79-.79-1.59-1.59-2.38-2.38l-.38-.38c-.09-.09-.19-.13-.3-.13-.01,0-.03,0-.04,0-.06,0-.11,0-.17,0H.49c-.14,0-.25,.05-.32,.13,0,0-.01,.01-.02,.02,0,0,0,0,0,0-.08,.08-.13,.18-.13,.32V15.69C0,16.28-.01,16.87,0,17.45c0,0,0,.02,0,.02,0,.26,.22,.48,.48,.48H11.98c.26,0,.48-.22,.48-.48V6.22s0-.08,0-.12c0,0,0,0,0,0,0,0,0,0,0,0Zm-3.07-1.92l1.44,1.44h-1.44v-1.44ZM.96,17V4.81c0-.44,.01-.87,0-1.31h7.46v2.59c0,.26,.22,.48,.48,.48h2.59v10.44H.96Z"/><g><path class="cls-1" d="M3.05,8.86h6.36c.61,0,.61-.95,0-.95H3.05c-.61,0-.61,.95,0,.95h0Z"/><path class="cls-1" d="M3.05,11.62h6.36c.61,0,.61-.95,0-.95H3.05c-.61,0-.61,.95,0,.95h0Z"/><path class="cls-1" d="M3.05,14.37h6.36c.61,0,.61-.95,0-.95H3.05c-.61,0-.61,.95,0,.95h0Z"/></g></g></g></svg>