<svg xmlns="http://www.w3.org/2000/svg" viewBox="0 0 11.61 11.61"><g id="レイヤー_2" data-name="レイヤー 2"><g id="design"><path id="noun_Home_2102808" data-name="noun Home 2102808" d="M.81,5.34l.25-.21v6a.49.49,0,0,0,.48.49h8.55a.49.49,0,0,0,.48-.49v-6l.25.21a.48.48,0,0,0,.68-.07.49.49,0,0,0-.05-.67L9.12,2.65V.8a.48.48,0,0,0-1,0v1L6.12.11a.48.48,0,0,0-.62,0L.18,4.6a.48.48,0,0,0-.07.68.49.49,0,0,0,.68.08v0Zm3.92,5.3V7.15H6.9v3.49ZM5.81,1.12,9.6,4.31v6.33H7.86v-4a.48.48,0,0,0-.48-.48H4.25a.48.48,0,0,0-.48.48v4H2V4.31Z"/></g></g></svg>