<?xml version="1.0" encoding="UTF-8"?><svg id="_イヤー_2" xmlns="http://www.w3.org/2000/svg" viewBox="0 0 9.46 15.43"><defs><style>.cls-1{fill:#b5956c;}</style></defs><g id="design"><g><path class="cls-1" d="M7.51,15.43H1.95c-1.08,0-1.95-.88-1.95-1.95V1.95C0,.88,.88,0,1.95,0H7.51c1.08,0,1.95,.88,1.95,1.95V13.48c0,1.08-.88,1.95-1.95,1.95ZM1.95,.67C1.25,.67,.67,1.25,.67,1.95V13.48c0,.71,.57,1.28,1.28,1.28H7.51c.71,0,1.28-.57,1.28-1.28V1.95c0-.71-.57-1.28-1.28-1.28H1.95Z"/><path class="cls-1" d="M9.46,3.04H0V1.95C0,.88,.88,0,1.95,0H7.51c1.08,0,1.95,.88,1.95,1.95v1.08ZM.67,2.37H8.79v-.41c0-.71-.57-1.28-1.28-1.28H1.95C1.25,.67,.67,1.25,.67,1.95v.41Z"/><path class="cls-1" d="M7.51,15.43H1.95c-1.08,0-1.95-.88-1.95-1.95v-1.14H9.46v1.14c0,1.08-.88,1.95-1.95,1.95ZM.67,13.01v.47c0,.71,.57,1.28,1.28,1.28H7.51c.71,0,1.28-.57,1.28-1.28v-.47H.67Z"/><path class="cls-1" d="M5.38,13.86c0-.36-.29-.65-.65-.65s-.65,.29-.65,.65,.29,.65,.65,.65,.65-.29,.65-.65Z"/></g></g></svg>