<svg xmlns="http://www.w3.org/2000/svg" viewBox="0 0 14.73 14.73"><g id="レイヤー_2" data-name="レイヤー 2"><g id="design"><path d="M11.26,2.63a.87.87,0,1,0,.87.86A.87.87,0,0,0,11.26,2.63Z"/><path d="M7.42,3.74a3.63,3.63,0,1,0,3.63,3.62A3.62,3.62,0,0,0,7.42,3.74Zm0,5.95A2.33,2.33,0,1,1,9.75,7.36,2.32,2.32,0,0,1,7.42,9.69Z"/><path d="M10.3,14.73H4.42A4.43,4.43,0,0,1,0,10.3V4.42A4.42,4.42,0,0,1,4.42,0H10.3a4.43,4.43,0,0,1,4.43,4.42V10.3A4.44,4.44,0,0,1,10.3,14.73ZM4.42,1.39a3,3,0,0,0-3,3V10.3a3,3,0,0,0,3,3H10.3a3,3,0,0,0,3-3V4.42a3,3,0,0,0-3-3Z"/></g></g></svg>