<?xml version="1.0" encoding="UTF-8"?><svg id="_イヤー_2" xmlns="http://www.w3.org/2000/svg" viewBox="0 0 17.04 25.25"><defs><style>.cls-1{fill:#b5956c;}</style></defs><g id="_景"><g><path class="cls-1" d="M9.48,25.25s-1.78-3.35-2.05-3.81c-.27-.46-2.04-3.92-2.04-3.92,0,0-1.54-3.35-1.66-5.24-.12-1.9,.01-3.25,.99-5.4,0,0,1.01-2.16,2.86-4.52C9.43,0,9.44,0,9.44,0c0,0,1.99,3.16,2.77,5.32,.78,2.16,.96,3.05,1.01,4.64,0,0,.14,1.56-1.35,5.03-1.67,3.9-1.71,3.89-1.71,3.89,0,0,1.73-1.58,2.84-1.93,1.11-.35,2.45-.56,4.03-.23,0,0-2.04,.95-3.4,2.28-1.36,1.33-2.19,2.43-2.8,3.44-.61,1.01-1.35,2.68-1.36,2.83"/><path class="cls-1" d="M7.95,24.61s-2.81-.19-4.53-1.23c-1.72-1.03-2.73-2.27-3.42-3.52,0,0,2.16-.01,4.13,1.11,0,0,2.29,1.38,3.82,3.64"/><path class="cls-1" d="M4.96,19.71s-2.22-.25-3.53-3.36c0,0,3,.78,3.53,3.36"/></g></g></svg>