<svg xmlns="http://www.w3.org/2000/svg" viewBox="0 0 114.11 53.07"><defs><style>.cls-1{fill:#fff;}</style></defs><g id="レイヤー_2" data-name="レイヤー 2"><g id="design"><path class="cls-1" d="M58.75,20.84A8.21,8.21,0,0,1,66,19a18.42,18.42,0,0,0-8.33,9.69c-.57-1-1.07-1.91-1.53-2.8a64.14,64.14,0,0,1-4.42-9.19,11.7,11.7,0,0,1,.77-9.54A41.05,41.05,0,0,1,57.17.35c.22-.27.45-.58.74-.1,1.89,3.17,3.67,6.39,4,10.17a12.34,12.34,0,0,1-1.18,5.74C60.09,17.73,59.41,19.28,58.75,20.84Z"/><path class="cls-1" d="M34.49,45.13a.71.71,0,0,1-.44-.65,1.47,1.47,0,0,0-1.49-1.3c-1,0-2,0-3-.07-.6,0-.78.26-.77.81,0,2,0,4,.05,6,.05,1.82.26,2,2.06,2.19.18,0,.36,0,.48.19-.15.41-.49.31-.75.3-2.09,0-4.18-.09-6.27,0-.25,0-.66.1-.71-.2s.38-.28.6-.29c.78-.06,1.09-.52,1.18-1.23a26.61,26.61,0,0,0,.16-3.22c0-3.79,0-7.59,0-11.38,0-1.72-.18-1.88-1.9-2.14-.17,0-.42,0-.43-.22s.27-.27.46-.27l3.59.05A66.61,66.61,0,0,0,35,33.58c.39,0,.57,0,.53.45-.09.86-.17,1.72-.26,2.58,0,.17,0,.39-.23.43s-.26-.19-.31-.35c-.4-1.34-.65-1.54-2-1.58-1,0-2,0-3.05-.06-.54,0-.75.21-.75.74,0,1.79,0,3.59,0,5.38,0,.43.15.68.62.67,1.31,0,2.62,0,3.94-.07a2.37,2.37,0,0,0,.75-.25c.21-.08.35-.43.61-.22s.06.45,0,.68C34.7,43,34.6,44,34.49,45.13Z"/><path class="cls-1" d="M110.1,52.49h-7.95c.23-.21.28-.3.35-.31,1.57-.39,1.66-.48,1.73-2.14.19-4.69,0-9.39.11-14.08,0-.66-.24-.9-.9-.86-1.19.07-2.39.1-3.58.14a2,2,0,0,0-2,1.32c-.07.18-.12.46-.4.38s-.21-.35-.17-.55c.15-.85.32-1.7.49-2.55.08-.41.31-.53.72-.41a10.72,10.72,0,0,0,3.29.3c3.91,0,7.83.2,11.73-.16.43,0,.62.09.62.52,0,.9,0,1.8,0,2.69,0,.18,0,.41-.24.41s-.26-.22-.27-.4c-.08-1-.82-1.38-1.65-1.47-1.27-.14-2.56-.15-3.84-.22-.48,0-.63.24-.63.67,0,4.78-.1,9.56.09,14.34.06,1.67.3,1.83,2,2C109.7,52.15,109.93,52.1,110.1,52.49Z"/><path class="cls-1" d="M47.41,33.85c-.15.39-.46.28-.71.31-1.22.12-1.5.38-1.51,1.63,0,3.49,0,7,0,10.49,0,1,0,2,.07,3,.08,1.3.54,1.78,1.82,1.86,1,.06,1.91,0,2.87,0a2.17,2.17,0,0,0,2.22-1.72c.07-.24,0-.68.37-.62s.23.5.2.77c-.4,3.49-.17,3-3.2,3s-5.79-.29-8.69-.06a2.44,2.44,0,0,1-.54,0c-.1,0-.25-.11-.26-.19s.13-.21.27-.26c1.44-.43,1.48-.43,1.58-1.88.22-3.07.06-6.15.09-9.23,0-1.61,0-3.23,0-4.84s-.13-1.67-1.82-2c-.15,0-.34,0-.36-.2s.2-.28.37-.28q3.49,0,7,0C47.22,33.69,47.31,33.8,47.41,33.85Z"/><path class="cls-1" d="M55,27.87a10.23,10.23,0,0,1-7.81-4.65c-.11-.17-.31-.34-.21-.55s.43-.15.65-.12c3.34.36,5.77,2.23,7.8,4.76.1.14.25.27.16.48S55.42,27.9,55,27.87Z"/><path class="cls-1" d="M52.08,22.26c-.21-.08-.41-.14-.6-.23a6.23,6.23,0,0,1-2.7-2.79c-.08-.15-.2-.33-.09-.5s.26-.09.4,0a5.39,5.39,0,0,1,3.17,2.86C52.36,21.81,52.56,22.14,52.08,22.26Z"/><path class="cls-1" d="M70.15,33.86A14.29,14.29,0,0,0,66,33.29c-.44,0-1.13.07-1.8.17a9.33,9.33,0,0,0-8,7.29A9.85,9.85,0,0,0,59.66,51a10.68,10.68,0,0,0,11.4.76c3.63-1.76,5.21-5,5.31-8.9C76.48,38.41,74.19,35.14,70.15,33.86Zm2.34,13c-1.24,5.61-6.61,5.84-9.81,3.4A8,8,0,0,1,59.89,46a13.09,13.09,0,0,1-.36-5.77c.44-2.93,2-4.91,4.36-5.44a6.76,6.76,0,0,1,7.33,2.92,10.86,10.86,0,0,1,1.61,6.21A12.69,12.69,0,0,1,72.49,46.83Z"/><path class="cls-1" d="M19.6,52.11a2.23,2.23,0,0,1-2-1.23,16.12,16.12,0,0,1-.89-1.76c-1.06-2.6-2.11-5.21-3.16-7.81s-2-4.94-3-7.4c-.12-.3-.21-.69-.6-.72s-.49.39-.62.67c-.35.83-.68,1.66-1,2.49q-2.79,7-5.57,13.9A2.51,2.51,0,0,1,.62,52.12C.39,52.14,0,52,0,52.4s.45.21.7.21c1.59,0,3.17-.1,4.75,0,.25,0,.55.09.72-.22a.31.31,0,0,0-.24-.24c-1.43-.3-1.58-.54-1.12-1.89s.91-2.41,1.34-3.61A.77.77,0,0,1,7,46.08c1.55,0,3.1,0,4.66,0a.82.82,0,0,1,.87.61q.84,2.27,1.7,4.53c.08.22.23.49.05.68-.72.79.1.66.42.67,1.62,0,3.23,0,4.85,0,.26,0,.61.1.75-.28C20.09,52.06,19.83,52.12,19.6,52.11Zm-8.48-7.33H7.55c-.44,0-.6-.19-.44-.62.7-1.86,1.39-3.73,2.09-5.59l.29,0c.69,1.93,1.39,3.85,2.08,5.77C11.7,44.7,11.42,44.78,11.12,44.78Z"/><path class="cls-1" d="M94.23,48.83c-.57-1.39-1.14-2.77-1.7-4.16Q90.4,39.36,88.25,34c-.14-.34-.21-.84-.69-.83s-.53.52-.67.86c-.54,1.3-1,2.61-1.57,3.91-1.62,4.05-3.25,8.1-4.86,12.15a2.64,2.64,0,0,1-2.64,2c-.16,0-.29.06-.33.36h6.3c-.06-.3-.19-.34-.35-.36-1.31-.22-1.49-.45-1.09-1.68s.94-2.52,1.39-3.79a.86.86,0,0,1,1-.59c1.44,0,2.87,0,4.31,0a1,1,0,0,1,1.13.78c.48,1.38,1,2.75,1.55,4.11.21.53.36,1-.3,1.37,1.21.45,5.89.38,6.4,0C95.39,51.5,95.27,51.39,94.23,48.83Zm-5.44-4H85c-.44,0-.48-.27-.35-.6q1.05-2.84,2.12-5.67h.24q1.07,2.88,2.11,5.76C89.28,44.6,89.14,44.78,88.79,44.78Z"/></g></g></svg>