<?xml version="1.0" encoding="UTF-8"?><svg id="_レイヤー_2" xmlns="http://www.w3.org/2000/svg" viewBox="0 0 36.141 36.141"><defs><style>.cls-1{fill:#fff;}.cls-1,.cls-2{stroke-width:0px;}.cls-2{fill:#008c26;}</style></defs><g id="_デザイン"><circle class="cls-1" cx="18.071" cy="18.071" r="18.071"/><path class="cls-2" d="M27.968,17.775c0-4.429-4.44-8.032-9.898-8.032s-9.897,3.603-9.897,8.032c0,3.97,3.521,7.296,8.277,7.924.322.07.761.212.872.488.1.25.065.642.032.895,0,0-.116.698-.141.847-.043.25-.199.979.857.533,1.057-.445,5.7-3.356,7.777-5.746h0c1.434-1.573,2.121-3.169,2.121-4.942ZM14.579,20.14c0,.107-.086.193-.193.193h-2.774c-.051,0-.098-.021-.133-.054,0,0-.002-.002-.003-.002-.001-.001-.002-.002-.003-.003-.033-.034-.054-.081-.054-.133v-4.312c0-.107.086-.193.193-.193h.694c.106,0,.193.086.193.193v3.425h1.886c.107,0,.193.087.193.193v.694ZM16.252,20.14c0,.106-.086.192-.193.192h-.694c-.106,0-.193-.086-.193-.192v-4.312c0-.106.087-.192.193-.192h.694c.107,0,.193.086.193.192v4.312ZM21.031,20.14c0,.106-.086.192-.193.192h-.694c-.017,0-.034-.002-.049-.006,0,0-.002,0-.003,0-.004-.001-.009-.003-.013-.004-.002,0-.004-.001-.006-.002-.003-.001-.006-.003-.009-.004-.003-.001-.006-.003-.009-.005-.002,0-.004-.002-.006-.003-.004-.002-.008-.005-.012-.007,0,0-.001-.001-.002-.002-.018-.012-.035-.028-.049-.047l-1.979-2.672v2.561c0,.106-.086.192-.193.192h-.695c-.106,0-.193-.086-.193-.192v-4.312c0-.106.086-.192.193-.192h.695s.004,0,.007,0c.003,0,.007,0,.01,0,.003,0,.007,0,.01.001.003,0,.005,0,.008.001.004,0,.007.001.011.002.003,0,.005.001.007.002.004.001.008.002.011.004.002,0,.004.001.006.002.004.001.007.003.011.005.002,0,.004.002.006.003.004.002.007.004.01.006.002.001.004.002.006.004.004.002.007.004.01.007.002.001.003.002.005.004.004.003.007.006.011.009.001,0,.002.002.003.003.004.004.008.008.012.012,0,0,0,0,0,.001.005.006.01.013.015.02l1.977,2.669v-2.562c0-.106.086-.192.193-.192h.694c.106,0,.193.086.193.192v4.312ZM24.865,16.522c0,.106-.086.193-.193.193h-1.886v.729h1.886c.106,0,.193.087.193.193v.694c0,.107-.086.193-.193.193h-1.886v.729h1.886c.106,0,.193.087.193.193v.694c0,.106-.086.193-.193.193h-2.774c-.052,0-.098-.021-.133-.054,0,0-.002-.002-.003-.002-.001,0-.002-.002-.003-.003-.034-.034-.054-.081-.054-.133v-4.312c0-.052.02-.098.054-.133,0-.001.002-.002.003-.003,0,0,.001,0,.002-.002.035-.033.082-.054.134-.054h2.774c.106,0,.193.086.193.193v.694Z"/></g></svg>