<?xml version="1.0" encoding="UTF-8"?><svg id="_レイヤー_2" xmlns="http://www.w3.org/2000/svg" viewBox="0 0 36.141 36.141"><defs><style>.cls-1{fill:#353535;}.cls-1,.cls-2{stroke-width:0px;}.cls-2{fill:#fff;}</style></defs><g id="_デザイン"><circle class="cls-2" cx="18.071" cy="18.071" r="18.071"/><path class="cls-1" d="M18.854,15.216c-.93-.013-1.895-.019-2.867-.019-1.289,0-2.642.011-4.02.034-.21.003-.32.168-.32.33s.11.326.32.329c1.377.022,2.728.034,4.017.034h0c.972,0,1.937-.007,2.869-.019.22-.003.334-.176.334-.344s-.115-.341-.334-.344Z"/><path class="cls-1" d="M18.854,17.975c-.931-.013-1.896-.019-2.869-.019-1.289,0-2.641.011-4.017.034-.21.003-.32.168-.32.33s.11.326.32.329c1.378.023,2.73.034,4.02.034h0c.972,0,1.936-.006,2.866-.019.22-.003.334-.176.334-.344s-.115-.341-.334-.344Z"/><path class="cls-1" d="M18.854,20.734c-.931-.013-1.896-.019-2.869-.019-1.289,0-2.641.011-4.017.034-.21.003-.32.168-.32.33s.11.326.32.329c1.377.022,2.728.034,4.017.034h0c.972,0,1.937-.006,2.869-.019.22-.003.334-.176.334-.344s-.115-.341-.334-.344Z"/><path class="cls-1" d="M18.854,23.492c-.931-.013-1.896-.019-2.868-.019-1.29,0-2.641.011-4.018.034-.21.003-.32.168-.32.33s.11.326.32.329c1.377.022,2.728.034,4.017.034h0c.972,0,1.937-.006,2.869-.019.22-.003.334-.176.334-.344s-.115-.341-.334-.344Z"/><path class="cls-1" d="M25.591,21.824c-.002-3.91-.005-7.819-.009-11.729,0-.161-.011-.323-.022-.481-.007-.096-.013-.191-.017-.286-.012-.285-.191-.456-.48-.456h-.163s-7.244,0-7.244,0c-.235,0-.469,0-.705.002h-.071c-.263.001-.526.002-.789.002-.599,0-1.309-.004-2.034-.035h-.021c-.139,0-.262.06-.338.167-.08.112-.099.259-.049.403.007.021.007.068.006.107v.03c-.001.684-.002,1.367-.003,2.051h-.283c-.235,0-.469,0-.705.002h-.071c-.263.001-.526.002-.789.002-.599,0-1.309-.004-2.034-.035h-.021c-.139,0-.262.06-.338.167-.08.112-.099.259-.049.403.007.021.007.068.006.107v.03c-.006,4.672-.013,9.345-.021,14.017,0,.17-.007.326-.02.475-.013.142.02.259.096.348.076.088.187.137.328.145.195.011.388.013.567.013,0,0,8.221.007,10.119.009.137,0,.276.006.413.018.018.002.035.002.052.002.227,0,.382-.146.403-.382.004-.041.004-.08.003-.118v-2.25c1.478.001,2.791.002,3.417.003.137,0,.276.006.413.018.018.002.035.002.052.002.227,0,.382-.146.403-.382.004-.041.004-.08.003-.118v-2.252ZM20.516,26.506h-10.41v-14.147h10.394c.043,1.583.056,12.537.017,14.147ZM24.804,23.78h-3.501c0-.77-.001-1.539-.002-2.308.623-.003,1.239-.008,1.841-.017.22-.003.334-.176.334-.344s-.115-.341-.334-.344c-.602-.008-1.219-.014-1.842-.017,0-.679-.001-1.358-.002-2.037.624-.003,1.241-.008,1.843-.017.22-.003.334-.176.334-.344s-.115-.341-.334-.344c-.603-.008-1.22-.014-1.844-.017,0-.679,0-1.358-.002-2.037.624-.003,1.242-.008,1.845-.017.22-.003.334-.176.334-.344s-.115-.341-.334-.344c-.603-.008-1.221-.014-1.846-.017,0-.679,0-1.358-.002-2.037.625-.003,1.244-.008,1.847-.017.22-.003.334-.176.334-.344s-.115-.341-.334-.344c-.608-.008-1.232-.014-1.862-.017-.003-.044-.005-.089-.008-.133-.007-.096-.013-.191-.017-.286-.012-.285-.191-.456-.48-.456h-.163s-6.218,0-6.218,0v-1.966h10.394c.043,1.583.056,12.537.017,14.147Z"/></g></svg>