<svg id="_レイヤー_2" xmlns="http://www.w3.org/2000/svg" viewBox="0 0 36.141 36.141"><defs><style>.cls-1{fill:#353535;stroke-width:0}</style></defs><g id="_デザイン"><circle cx="18.071" cy="18.071" r="18.071" style="fill:#fff;stroke-width:0"/><path class="cls-1" d="M18.854 15.216a242.096 242.096 0 0 0-6.887.015c-.21.003-.32.168-.32.33s.11.326.32.329a223.698 223.698 0 0 0 6.886.015c.22-.003.334-.176.334-.344s-.115-.341-.334-.344Zm0 2.759a241.56 241.56 0 0 0-6.886.015c-.21.003-.32.168-.32.33s.11.326.32.329a242.006 242.006 0 0 0 6.886.015c.22-.003.334-.176.334-.344s-.115-.341-.334-.344Zm0 2.759a241.56 241.56 0 0 0-6.886.015c-.21.003-.32.168-.32.33s.11.326.32.329c1.377.022 2.728.034 4.017.034.972 0 1.937-.006 2.869-.019.22-.003.334-.176.334-.344s-.115-.341-.334-.344Zm0 2.758a241.679 241.679 0 0 0-6.886.015c-.21.003-.32.168-.32.33s.11.326.32.329c1.377.022 2.728.034 4.017.034.972 0 1.937-.006 2.869-.019.22-.003.334-.176.334-.344s-.115-.341-.334-.344Z"/><path class="cls-1" d="M25.591 21.824c-.002-3.91-.005-7.819-.009-11.729 0-.161-.011-.323-.022-.481a9.322 9.322 0 0 1-.017-.286c-.012-.285-.191-.456-.48-.456h-7.407c-.235 0-.469 0-.705.002h-.071l-.789.002c-.599 0-1.309-.004-2.034-.035h-.021a.406.406 0 0 0-.338.167.438.438 0 0 0-.049.403.42.42 0 0 1 .006.107v.03l-.003 2.051h-.283c-.235 0-.469 0-.705.002h-.071l-.789.002c-.599 0-1.309-.004-2.034-.035h-.021a.406.406 0 0 0-.338.167.438.438 0 0 0-.049.403.42.42 0 0 1 .006.107v.03c-.006 4.672-.013 9.345-.021 14.017 0 .17-.007.326-.02.475a.452.452 0 0 0 .096.348.448.448 0 0 0 .328.145c.195.011.388.013.567.013l10.119.009c.137 0 .276.006.413.018.018.002.035.002.052.002.227 0 .382-.146.403-.382a.944.944 0 0 0 .003-.118v-2.25l3.417.003c.137 0 .276.006.413.018.018.002.035.002.052.002.227 0 .382-.146.403-.382a.944.944 0 0 0 .003-.118v-2.252Zm-5.075 4.682h-10.41V12.359H20.5c.043 1.583.056 12.537.017 14.147Zm4.288-2.726h-3.501l-.002-2.308a182.41 182.41 0 0 0 1.841-.017c.22-.003.334-.176.334-.344s-.115-.341-.334-.344a217.77 217.77 0 0 0-1.842-.017l-.002-2.037a182.54 182.54 0 0 0 1.843-.017c.22-.003.334-.176.334-.344s-.115-.341-.334-.344c-.603-.008-1.22-.014-1.844-.017 0-.679 0-1.358-.002-2.037.624-.003 1.242-.008 1.845-.017.22-.003.334-.176.334-.344s-.115-.341-.334-.344c-.603-.008-1.221-.014-1.846-.017 0-.679 0-1.358-.002-2.037.625-.003 1.244-.008 1.847-.017.22-.003.334-.176.334-.344s-.115-.341-.334-.344c-.608-.008-1.232-.014-1.862-.017l-.008-.133a9.322 9.322 0 0 1-.017-.286c-.012-.285-.191-.456-.48-.456h-6.381V9.632h10.394c.043 1.583.056 12.537.017 14.147Z"/></g></svg>