<svg xmlns="http://www.w3.org/2000/svg" viewBox="0 0 36.141 36.141"><circle cx="18.071" cy="18.071" r="18.071" style="stroke-width:0;fill:#fff"/><path d="M27.968 17.775c0-4.429-4.44-8.032-9.898-8.032s-9.897 3.603-9.897 8.032c0 3.97 3.521 7.296 8.277 7.924.322.07.761.212.872.488.1.25.065.642.032.895l-.141.847c-.043.25-.199.979.857.533 1.057-.445 5.7-3.356 7.777-5.746 1.434-1.573 2.121-3.169 2.121-4.942ZM14.579 20.14a.192.192 0 0 1-.193.193h-2.774a.195.195 0 0 1-.133-.054l-.003-.002-.003-.003a.19.19 0 0 1-.054-.133v-4.312c0-.107.086-.193.193-.193h.694c.106 0 .193.086.193.193v3.425h1.886c.107 0 .193.087.193.193v.694Zm1.673 0a.192.192 0 0 1-.193.192h-.694a.193.193 0 0 1-.193-.192v-4.312c0-.106.087-.192.193-.192h.694c.107 0 .193.086.193.192v4.312Zm4.779 0a.192.192 0 0 1-.193.192h-.694a.193.193 0 0 1-.049-.006h-.003l-.013-.004-.006-.002-.009-.004a.04.04 0 0 1-.009-.005l-.006-.003-.012-.007-.002-.002a.198.198 0 0 1-.049-.047l-1.979-2.672v2.561a.192.192 0 0 1-.193.192h-.695a.193.193 0 0 1-.193-.192v-4.312c0-.106.086-.192.193-.192h.712l.01.001.008.001.011.002.007.002.011.004.006.002.011.005.006.003a.088.088 0 0 1 .01.006l.006.004a.036.036 0 0 1 .01.007.018.018 0 0 1 .005.004l.011.009.003.003.012.012v.001l.015.02 1.977 2.669V15.83c0-.106.086-.192.193-.192h.694c.106 0 .193.086.193.192v4.312Zm3.834-3.618a.193.193 0 0 1-.193.193h-1.886v.729h1.886c.106 0 .193.087.193.193v.694a.192.192 0 0 1-.193.193h-1.886v.729h1.886c.106 0 .193.087.193.193v.694a.193.193 0 0 1-.193.193h-2.774a.193.193 0 0 1-.133-.054l-.003-.002-.003-.003a.187.187 0 0 1-.054-.133v-4.312c0-.052.02-.098.054-.133l.003-.003.002-.002a.195.195 0 0 1 .134-.054h2.774c.106 0 .193.086.193.193v.694Z" style="fill:#008c26;stroke-width:0"/></svg>