<?xml version="1.0" encoding="UTF-8"?><svg id="_レイヤー_2" xmlns="http://www.w3.org/2000/svg" xmlns:xlink="http://www.w3.org/1999/xlink" viewBox="0 0 38.761 38.761"><defs><style>.cls-1{fill:url(#_名称未設定グラデーション_302);}.cls-1,.cls-2{stroke-width:0px;}.cls-2{fill:#fff;}</style><linearGradient id="_名称未設定グラデーション_302" x1="0" y1="19.38" x2="38.761" y2="19.38" gradientUnits="userSpaceOnUse"><stop offset="0" stop-color="#e8a26f"/><stop offset=".483" stop-color="#de9280"/><stop offset="1" stop-color="#d5848e"/></linearGradient></defs><g id="_デザイン"><rect class="cls-1" x="0" y="0" width="38.761" height="38.761" rx="19.38" ry="19.38"/><path class="cls-2" d="M28.362,24.974l-.022-.069c-.091-.229-.301-.377-.646-.622l-.228-.164c-.024-.018-2.463-1.791-2.928-2.053-.353-.202-.836-.479-1.38.098-.315.335-1.135,1.039-1.746,1.543-.21.172-.365.203-.729-.062-.074-.054-.162-.111-.274-.184l-.019-.012c-.572-.372-1.763-1.146-2.994-2.685-1.107-1.381-1.765-2.959-1.997-3.576-.112-.293-.038-.401.279-.624.167-.119.355-.282.537-.44l.015-.013c.099-.086.197-.172.294-.252.254-.212.38-.387.54-.61l.092-.127c.282-.388.211-.773.132-1.032-.049-.159-.32-1.359-.559-2.418l-.281-1.241c-.175-.753-.466-1.068-1.026-1.122-.024-.002-.048-.004-.082-.01-.122-.02-.259-.052-.409-.088l-.014-.003c-.146-.034-.297-.07-.466-.099l-.048-.007c-.292-.038-.871-.034-1.46.424l-.108.082c-.563.428-1.882,1.431-2.258,3.658-.368,2.182.752,4.572,1.103,5.251.014.028.037.079.071.154,1.689,3.73,4.085,6.667,6.745,8.27,2.699,1.628,3.807,2.044,4.476,2.131.249.033.438.02.624.007.143-.01.246-.016.366-.007.893.068,3.081-.643,3.726-1.796.532-.949.764-1.935.673-2.303Z"/></g></svg>