<?xml version="1.0" encoding="utf-8"?>
<!-- Generator: Adobe Illustrator 26.3.1, SVG Export Plug-In . SVG Version: 6.00 Build 0)  -->
<svg version="1.1" id="レイヤー_1" xmlns="http://www.w3.org/2000/svg" xmlns:xlink="http://www.w3.org/1999/xlink" x="0px"
	 y="0px" viewBox="0 0 20 20" style="enable-background:new 0 0 20 20;" xml:space="preserve">
<style type="text/css">
	.st0{fill:#B6966C;}
</style>
<path id="noun_Search_2102816" class="st0" d="M7.4,14.8c1.7,0,3.3-0.6,4.6-1.6l6.6,6.6c0.3,0.3,0.9,0.3,1.2,0
	c0.3-0.3,0.3-0.8,0-1.2L13.2,12c2.5-3.2,2-7.8-1.2-10.4s-7.8-2-10.4,1.2s-2,7.8,1.2,10.4C4.1,14.2,5.7,14.8,7.4,14.8L7.4,14.8z
	 M3.3,3.4c2.2-2.2,5.8-2.2,8,0.1c2.2,2.2,2.2,5.8-0.1,8c-2.2,2.2-5.8,2.2-8-0.1C1.1,9.2,1.1,5.6,3.3,3.4L3.3,3.4z"/>
</svg>
