<?xml version="1.0" encoding="UTF-8"?><svg id="_イヤー_2" xmlns="http://www.w3.org/2000/svg" viewBox="0 0 21.43 15"><defs><style>.cls-1{fill:#fff;}</style></defs><g id="design"><path class="cls-1" d="M20.98,2.34c-.25-.92-.97-1.65-1.89-1.89-1.67-.45-8.37-.45-8.37-.45,0,0-6.7,0-8.37,.45-.92,.25-1.65,.97-1.89,1.89-.45,1.67-.45,5.16-.45,5.16,0,0,0,3.49,.45,5.16,.25,.92,.97,1.65,1.89,1.89,1.67,.45,8.37,.45,8.37,.45,0,0,6.7,0,8.37-.45,.92-.25,1.65-.97,1.89-1.89,.45-1.67,.45-5.16,.45-5.16,0,0,0-3.49-.45-5.16ZM8.57,10.71V4.29l5.57,3.21-5.57,3.21Z"/></g></svg>