<svg id="_レイヤー_2" xmlns="http://www.w3.org/2000/svg" viewBox="0 0 15 17.96"><defs><style>.cls-1{fill:#fff}</style></defs><g id="_レイヤー_1-2"><path class="cls-1" d="M15 3.55v-.06c-.01-.1-.06-.2-.13-.27l-.31-.31L12.18.53 11.8.15a.41.41 0 0 0-.3-.13H3.03c-.14 0-.25.05-.32.13l-.02.02c-.08.08-.13.18-.13.32v1.28h.95s.01-.38 0-.81h7.46v2.59c0 .26.22.48.48.48h2.59v10.43h-.81v.95h1.29c.26 0 .48-.22.48-.48V3.55Zm-3.07-.48V1.63l1.44 1.44h-1.44Z"/><path class="cls-1" d="M12.46 6.09v-.06c-.01-.1-.06-.2-.13-.27l-.07-.07-.24-.24-2.38-2.38-.38-.38a.41.41 0 0 0-.3-.13H.49c-.14 0-.25.05-.32.13l-.02.02c-.08.08-.13.18-.13.32v12.66c-.02.59-.03 1.18-.02 1.76v.02c0 .26.22.48.48.48h11.5c.26 0 .48-.22.48-.48V6.1ZM9.39 4.17l1.44 1.44H9.39V4.17ZM.96 17V4.81c0-.44.01-.87 0-1.31h7.46v2.59c0 .26.22.48.48.48h2.59v10.44H.96Z"/><path class="cls-1" d="M3.05 8.86h6.36c.61 0 .61-.95 0-.95H3.05c-.61 0-.61.95 0 .95Zm0 2.76h6.36c.61 0 .61-.95 0-.95H3.05c-.61 0-.61.95 0 .95Zm0 2.75h6.36c.61 0 .61-.95 0-.95H3.05c-.61 0-.61.95 0 .95Z"/></g></svg>