<svg xmlns="http://www.w3.org/2000/svg" viewBox="0 0 8.04 13.11"><defs><style>.cls-1{fill:#fff;}</style></defs><g id="レイヤー_2" data-name="レイヤー 2"><g id="design"><path class="cls-1" d="M6.38,13.11H1.66A1.66,1.66,0,0,1,0,11.45V1.66A1.66,1.66,0,0,1,1.66,0H6.38A1.66,1.66,0,0,1,8,1.66v9.79A1.67,1.67,0,0,1,6.38,13.11ZM1.66.57A1.09,1.09,0,0,0,.57,1.66v9.79a1.09,1.09,0,0,0,1.09,1.09H6.38a1.09,1.09,0,0,0,1.09-1.09V1.66A1.09,1.09,0,0,0,6.38.57Z"/><path class="cls-1" d="M8,2.58H0V1.66A1.66,1.66,0,0,1,1.66,0H6.38A1.66,1.66,0,0,1,8,1.66ZM.57,2h6.9V1.66A1.09,1.09,0,0,0,6.38.57H1.66A1.09,1.09,0,0,0,.57,1.66Z"/><path class="cls-1" d="M6.38,13.11H1.66A1.66,1.66,0,0,1,0,11.45v-1H8v1A1.67,1.67,0,0,1,6.38,13.11ZM.57,11.05v.4a1.09,1.09,0,0,0,1.09,1.09H6.38a1.09,1.09,0,0,0,1.09-1.09v-.4Z"/><path class="cls-1" d="M4.57,11.77A.55.55,0,0,0,4,11.22a.55.55,0,1,0,0,1.1A.55.55,0,0,0,4.57,11.77Z"/></g></g></svg>