<svg xmlns="http://www.w3.org/2000/svg" viewBox="0 0 14.73 14.73"><g data-name="レイヤー 2"><path d="M11.26 2.63a.87.87 0 1 0 .87.86.87.87 0 0 0-.87-.86ZM7.42 3.74a3.63 3.63 0 1 0 3.63 3.62 3.62 3.62 0 0 0-3.63-3.62Zm0 5.95a2.33 2.33 0 1 1 2.33-2.33 2.32 2.32 0 0 1-2.33 2.33Z"/><path d="M10.3 14.73H4.42A4.43 4.43 0 0 1 0 10.3V4.42A4.42 4.42 0 0 1 4.42 0h5.88a4.43 4.43 0 0 1 4.43 4.42v5.88a4.44 4.44 0 0 1-4.43 4.43ZM4.42 1.39a3 3 0 0 0-3 3v5.91a3 3 0 0 0 3 3h5.88a3 3 0 0 0 3-3V4.42a3 3 0 0 0-3-3Z"/></g></svg>