<svg xmlns="http://www.w3.org/2000/svg" viewBox="0 0 16.35 13.46"><path d="M16.28 1.61a6.24 6.24 0 0 1-1.65.47c.27 0 .66-.52.81-.72a2.88 2.88 0 0 0 .55-1s0-.06 0-.08a.1.1 0 0 0-.09 0 8 8 0 0 1-2 .75.12.12 0 0 1-.13 0l-.14-.21a3.56 3.56 0 0 0-1-.58 3.14 3.14 0 0 0-1.4-.24 3.32 3.32 0 0 0-1.38.4 3.51 3.51 0 0 0-1.12.91 3.39 3.39 0 0 0-.66 1.33A3.52 3.52 0 0 0 8 4.05c0 .08 0 .09-.07.08A10.48 10.48 0 0 1 1.23.7C1.15.61 1.1.61 1 .71a3.41 3.41 0 0 0 .58 4 5 5 0 0 0 .42.4 3.33 3.33 0 0 1-1.3-.37c-.08 0-.12 0-.13.07a1.73 1.73 0 0 0 0 .39A3.45 3.45 0 0 0 2.76 8a1.76 1.76 0 0 0 .43.13 3.7 3.7 0 0 1-1.27 0c-.09 0-.13 0-.09.12a3.58 3.58 0 0 0 2.67 2.23h.37c.12 0 0 0 0 0a4.26 4.26 0 0 1-1.83 1 6.59 6.59 0 0 1-2.78.36H.04c-.04 0 0 .06 0 .1l.58.34a8.83 8.83 0 0 0 1.86.75 9.9 9.9 0 0 0 9.6-2.25 10.07 10.07 0 0 0 2.66-7.35c0-.11.12-.17.2-.22a7 7 0 0 0 1.31-1.36.44.44 0 0 0 .08-.26s.02-.01-.05.02Z" style="fill:#fff" data-name="レイヤー 2"/></svg>