<svg xmlns="http://www.w3.org/2000/svg" viewBox="0 0 10.25 9.96"><defs><style>.cls-1{fill:#251e1c;fill-rule:evenodd;}</style></defs><g id="レイヤー_2" data-name="レイヤー 2"><g id="design"><path class="cls-1" d="M9.74,7.21C9.49,7.07,8.25,6.4,8,6.3s-.41-.14-.59.11-.69.81-.85,1-.3.18-.56,0A7.14,7.14,0,0,1,4,6.08,7.72,7.72,0,0,1,2.65,4.25a.38.38,0,0,1,.13-.52c.12-.11.27-.29.4-.44a1.82,1.82,0,0,0,.27-.41.45.45,0,0,0,0-.45C3.39,2.29,2.92,1,2.73.49S2.32.05,2.17,0s-.32,0-.49,0A.93.93,0,0,0,1,.3,2.88,2.88,0,0,0,0,2.4,5,5,0,0,0,1,5.1a10.6,10.6,0,0,0,4.24,4c2.57,1.12,2.58.78,3.06.75A2.55,2.55,0,0,0,10,8.74a2.15,2.15,0,0,0,.2-1.22c-.06-.11-.23-.18-.48-.31Z"/></g></g></svg>