<svg xmlns="http://www.w3.org/2000/svg" viewBox="0 0 32.68 33.23"><path d="M23.28 0H9.39C4.2 0 0 4.21 0 9.39v14.45c0 5.19 4.2 9.39 9.39 9.39h13.89c5.19 0 9.39-4.21 9.39-9.39V9.39C32.67 4.2 28.46 0 23.28 0ZM3.33 9.39c0-3.34 2.72-6.06 6.06-6.06h13.89c3.34 0 6.06 2.72 6.06 6.06v14.45c0 3.34-2.72 6.06-6.06 6.06H9.39c-3.34 0-6.06-2.72-6.06-6.06V9.39Zm13 15.78c4.72 0 8.56-3.84 8.56-8.56s-3.84-8.56-8.56-8.56-8.56 3.84-8.56 8.56 3.84 8.56 8.56 8.56Zm0-14.45c3.25 0 5.89 2.64 5.89 5.89s-2.64 5.89-5.89 5.89-5.89-2.64-5.89-5.89 2.64-5.89 5.89-5.89Zm8.81-4.83a1.92 1.92 0 1 1-.001 3.841 1.92 1.92 0 0 1 .001-3.841Z" style="fill:#b09671"/></svg>