<svg xmlns="http://www.w3.org/2000/svg" viewBox="0 0 15.16 11.11"><g data-name="レイヤー 2"><path d="M14.79 0h-2.58a.41.41 0 0 0-.42.32C11.15 2.55 10.59 4.8 9.94 7H1.36a.46.46 0 0 0 0 .91h8.82a.52.52 0 0 0 .56-.42c.6-2.2 1.19-4.4 1.81-6.6.76-.07 1.54 0 2.3-.05a.45.45 0 0 0-.06-.84Z"/><path d="M1.85 6.07h7a.48.48 0 0 0 .55-.34c.46-1.7.89-3.39 1.34-5.09a.48.48 0 0 0-.46-.64H.36A.47.47 0 0 0 0 .68C.46 2.34.87 4 1.31 5.69a.49.49 0 0 0 .54.38Zm4.48-.93H4.6a2.34 2.34 0 0 1-.06-.7h1.8c.1.21.01.48-.01.7Zm.12-1.68a10.16 10.16 0 0 1-2 0 4.9 4.9 0 0 1 0-.77 16 16 0 0 1 2.08 0 4.21 4.21 0 0 1-.08.77ZM7.55.92h2.17a5 5 0 0 1-.22.87h-2a2.32 2.32 0 0 1 .05-.87Zm-.12 1.8h1.82C9.19 3 9.2 3.3 9 3.5H7.39a3 3 0 0 1 .04-.78Zm-.12 1.73h1.51a5.69 5.69 0 0 1-.18.68H7.29a3.19 3.19 0 0 1 .02-.68Zm-3-3.54h2.3a8.11 8.11 0 0 1-.05.86h-2.2a3.66 3.66 0 0 1-.05-.86Zm-.66 4.23H2.12a2.88 2.88 0 0 1-.18-.7h1.65a3.22 3.22 0 0 1 .06.7Zm-.12-1.63H1.7a4.13 4.13 0 0 1-.19-.77 16.17 16.17 0 0 1 2 0 4 4 0 0 1 .02.77ZM1.05.91h2.32a6.12 6.12 0 0 1 0 .86H1.24a4.06 4.06 0 0 1-.19-.86ZM3 9a1.09 1.09 0 0 0 .53 2.1 1.1 1.1 0 0 0 .86-1.32A1.07 1.07 0 0 0 3 9Zm5.48 0a1.09 1.09 0 1 0 1.31 1 1.1 1.1 0 0 0-1.31-1Z"/></g></svg>