<svg xmlns="http://www.w3.org/2000/svg" viewBox="0 0 100 46.48"><path d="M5.87 40.46c-.11 0-.16 0-.2.17l-1.18 3.13a4.22 4.22 0 0 0-.33 1.34c0 .39.2.67.88.67h.32c.27 0 .33 0 .33.18s-.13.22-.37.22c-.7 0-1.64-.07-2.32-.07-.24 0-1.45.07-2.58.07-.29 0-.42-.05-.42-.17s.09-.18.26-.18h.68c1-.13 1.42-.87 1.86-2L8.3 30c.26-.63.39-.87.61-.87s.33.19.55.7C10 31 13.49 40 14.89 43.3c.83 2 1.46 2.28 1.92 2.39a5.28 5.28 0 0 0 .92.08c.18 0 .29 0 .29.18s-.2.22-1 .22-2.39 0-4.14-.05c-.39 0-.65 0-.65-.17s.08-.18.3-.2a.35.35 0 0 0 .2-.5L11 40.61a.21.21 0 0 0-.22-.15Zm4.46-1.1c.11 0 .13-.06.11-.13l-2-5.41c0-.09 0-.2-.11-.2s-.11.11-.13.2l-2 5.39c0 .09 0 .15.08.15Zm15.04.46c0 2.1 0 3.74.11 4.66.07.64.2 1.12.86 1.21a9.81 9.81 0 0 0 1.09.08c.29 0 .37.07.37.18s-.15.22-.48.22c-1.38 0-2.76-.07-3.33-.07s-1.95.07-2.78.07c-.3 0-.46-.05-.46-.22s.09-.18.33-.18a3.93 3.93 0 0 0 .79-.08c.44-.09.55-.57.63-1.21.11-.92.11-2.56.11-4.66v-8.46c0-.7-.22-1.1-.94-1.25a4.07 4.07 0 0 0-.86-.07c-.21 0-.37 0-.37-.17s.18-.22.51-.22h8.93a3.89 3.89 0 0 0 .9-.09c.13 0 .24-.13.35-.13s.15.09.15.2-.11.42-.18 1c0 .21-.06 1.51-.1 1.77s-.07.31-.22.31-.2-.11-.22-.36a2.18 2.18 0 0 0-.13-.83 1.61 1.61 0 0 0-1.45-.65l-3.37-.07c-.13 0-.2.07-.2.31v5.47c0 .13 0 .2.16.2h3.8a1.13 1.13 0 0 0 .94-.39c.11-.13.16-.22.29-.22s.13.07.13.2-.11.68-.17 1.35c-.05.44-.09 1.45-.09 1.6s0 .42-.22.42-.18-.16-.18-.31a2.39 2.39 0 0 0-.13-.68 1.28 1.28 0 0 0-1.11-.78c-.55-.07-2.87-.07-3.24-.07-.11 0-.16 0-.16.2Zm14.25 0c0 2.8 0 4.31.46 4.71s.92.47 2.65.47c1.16 0 2 0 2.56-.61a2.67 2.67 0 0 0 .57-1.32c0-.19.07-.33.24-.33s.18.11.18.38a16.52 16.52 0 0 1-.28 2.52c-.13.48-.24.59-1.38.59-1.58 0-2.71 0-3.7-.06s-1.77-.07-2.67-.07H37c-.53 0-1.07.05-1.51.05-.28 0-.44-.07-.44-.22s.09-.18.35-.18a3.85 3.85 0 0 0 .79-.08c.44-.09.55-.57.64-1.21.11-.92.11-2.65.11-4.66v-8.44c0-.7-.22-1.1-.94-1.25a2.87 2.87 0 0 0-.72-.07c-.24 0-.37 0-.37-.19s.15-.2.48-.2c1 0 2.41.06 3 .06s2.12-.06 3-.06c.3 0 .45 0 .45.2s-.13.19-.39.19a5 5 0 0 0-.85.07c-.59.11-.77.48-.81 1.25s-.05 1.31-.05 4.64Zm9.44-1.93c0-3.74 2.47-8.58 9-8.58 5.45 0 8.84 3.18 8.84 8.19a8.66 8.66 0 0 1-9.06 9 8.34 8.34 0 0 1-8.82-8.59m14.82.42c0-4.9-2.82-8-6.42-8-2.51 0-5.38 1.4-5.38 6.85 0 4.56 2.52 8.17 6.72 8.17 1.53 0 5.08-.74 5.08-7.07m9.87 2.18c-.11 0-.16 0-.2.17l-1.18 3.13A4.22 4.22 0 0 0 72 45.1c0 .39.2.67.88.67h.32c.27 0 .33 0 .33.18s-.13.22-.37.22c-.7 0-1.64-.07-2.32-.07-.24 0-1.45.07-2.58.07-.29 0-.42-.05-.42-.22s.09-.18.26-.18h.68c1-.13 1.42-.87 1.86-2L76.14 30c.26-.63.39-.87.61-.87s.33.19.55.7c.52 1.2 4 10.13 5.43 13.46.83 2 1.46 2.28 1.92 2.39a5.28 5.28 0 0 0 .92.08c.18 0 .29 0 .29.18s-.2.22-1 .22-2.39 0-4.14-.05c-.39 0-.65 0-.65-.17s.08-.18.3-.2a.35.35 0 0 0 .2-.5l-1.75-4.64a.21.21 0 0 0-.22-.15Zm4.46-1.1c.11 0 .14-.06.11-.13l-2-5.41c0-.09 0-.2-.11-.2s-.11.11-.13.2l-2 5.39c0 .09 0 .15.09.15Zm13.23-8.52-3.27.09c-1.27.05-1.79.15-2.12.64a2.41 2.41 0 0 0-.37.76c0 .18-.11.27-.24.27s-.2-.11-.2-.35.42-2.35.46-2.52.13-.42.26-.42a5.12 5.12 0 0 0 .94.26 21.68 21.68 0 0 0 2.19.11h8.67a9.54 9.54 0 0 0 1.51-.11c.33-.06.51-.11.59-.11s.18.14.18.46-.07 2-.07 2.54c0 .22-.06.35-.19.35s-.22-.1-.24-.43v-.24c0-.57-.63-1.19-2.58-1.23l-2.76-.07v9c0 2 0 3.74.11 4.69.07.61.2 1.09.86 1.18a9.82 9.82 0 0 0 1.11.08c.24 0 .35.07.35.18s-.17.22-.41.22c-1.45 0-2.83-.07-3.44-.07s-1.88.07-2.76.07c-.28 0-.44-.07-.44-.22s.09-.18.35-.18a3.93 3.93 0 0 0 .79-.08c.44-.09.57-.57.64-1.21.11-.92.11-2.65.11-4.66Zm-40.8-5.59s-1.78-3.34-2.05-3.8-2-3.92-2-3.92a20.75 20.75 0 0 1-1.66-5.25 9.87 9.87 0 0 1 1-5.4 26.66 26.66 0 0 1 2.81-4.52L50.56 0a36.12 36.12 0 0 1 2.77 5.32 12.57 12.57 0 0 1 1 4.64s.13 1.56-1.35 5c-1.67 3.9-1.71 3.88-1.71 3.88a11.13 11.13 0 0 1 2.84-1.93 7.9 7.9 0 0 1 4-.23A14.28 14.28 0 0 0 54.75 19 16.8 16.8 0 0 0 52 22.42a19.5 19.5 0 0 0-1.35 2.83m-1.58-.64a12.14 12.14 0 0 1-4.53-1.23 9.1 9.1 0 0 1-3.42-3.52A9.28 9.28 0 0 1 45.25 21a13.83 13.83 0 0 1 3.82 3.64m-2.99-4.93s-2.22-.24-3.53-3.36c0 0 3 .78 3.53 3.36" data-name="レイヤー 2"/></svg>