<?xml version="1.0" encoding="UTF-8"?><svg id="_イヤー_2" xmlns="http://www.w3.org/2000/svg" viewBox="0 0 236.88 351.15"><defs><style>.cls-1{fill:#fff;}</style></defs><g id="_景"><g><path class="cls-1" d="M131.81,351.15s-24.69-46.52-28.46-52.95c-3.71-6.4-28.41-54.49-28.41-54.49,0,0-21.4-46.54-23.11-72.92-1.73-26.38,.18-45.14,13.75-75.12,0,0,14.05-29.98,39.82-62.79C131.16,.1,131.3,0,131.3,0c0,0,27.6,43.93,38.46,73.92,10.83,29.97,13.41,42.35,14.02,64.55,0,0,1.91,21.71-18.72,69.95-23.2,54.27-23.74,54.04-23.74,54.04,0,0,24.06-22.02,39.5-26.89,15.47-4.81,34.04-7.78,56.06-3.25,0,0-28.41,13.27-47.3,31.7-18.92,18.43-30.47,33.72-38.92,47.77-8.43,14.05-18.72,37.33-18.85,39.36"/><path class="cls-1" d="M110.55,342.21s-39.05-2.71-62.93-17.11c-23.9-14.38-37.98-31.61-47.62-48.96,0,0,29.98-.14,57.4,15.46,0,0,31.88,19.12,53.15,50.61"/><path class="cls-1" d="M68.94,274.1s-30.82-3.43-49.11-46.75c0,0,41.78,10.8,49.11,46.75"/></g></g></svg>