<svg xmlns="http://www.w3.org/2000/svg" viewBox="0 0 17.04 25.25"><path d="M9.48 25.25S7.7 21.9 7.43 21.44c-.27-.46-2.04-3.92-2.04-3.92s-1.54-3.35-1.66-5.24c-.12-1.9.01-3.25.99-5.4 0 0 1.01-2.16 2.86-4.52C9.43 0 9.44 0 9.44 0s1.99 3.16 2.77 5.32.96 3.05 1.01 4.64c0 0 .14 1.56-1.35 5.03-1.67 3.9-1.71 3.89-1.71 3.89s1.73-1.58 2.84-1.93c1.11-.35 2.45-.56 4.03-.23 0 0-2.04.95-3.4 2.28-1.36 1.33-2.19 2.43-2.8 3.44-.61 1.01-1.35 2.68-1.36 2.83m-1.52-.66s-2.81-.19-4.53-1.23C1.7 22.35.69 21.11 0 19.86c0 0 2.16-.01 4.13 1.11 0 0 2.29 1.38 3.82 3.64m-2.99-4.9s-2.22-.25-3.53-3.36c0 0 3 .78 3.53 3.36" style="fill:#b5956c"/></svg>