<svg xmlns="http://www.w3.org/2000/svg" viewBox="0 0 236.88 351.15"><path d="M131.81 351.15s-24.69-46.52-28.46-52.95c-3.71-6.4-28.41-54.49-28.41-54.49s-21.4-46.54-23.11-72.92c-1.73-26.38.18-45.14 13.75-75.12 0 0 14.05-29.98 39.82-62.79C131.16.1 131.3 0 131.3 0s27.6 43.93 38.46 73.92c10.83 29.97 13.41 42.35 14.02 64.55 0 0 1.91 21.71-18.72 69.95-23.2 54.27-23.74 54.04-23.74 54.04s24.06-22.02 39.5-26.89c15.47-4.81 34.04-7.78 56.06-3.25 0 0-28.41 13.27-47.3 31.7-18.92 18.43-30.47 33.72-38.92 47.77-8.43 14.05-18.72 37.33-18.85 39.36m-21.26-8.94S71.5 339.5 47.62 325.1C23.72 310.72 9.64 293.49 0 276.14c0 0 29.98-.14 57.4 15.46 0 0 31.88 19.12 53.15 50.61M68.94 274.1s-30.82-3.43-49.11-46.75c0 0 41.78 10.8 49.11 46.75" style="fill:#fff"/></svg>