<svg xmlns="http://www.w3.org/2000/svg" viewBox="0 0 188.62 89.61"><path d="M95.4 45.48s-3.2-6.02-3.69-6.86c-.48-.83-3.68-7.06-3.68-7.06s-2.77-6.03-2.99-9.44c-.22-3.42.02-5.85 1.78-9.73 0 0 1.82-3.88 5.16-8.13C95.31.01 95.33 0 95.33 0s3.57 5.69 4.98 9.57c1.4 3.88 1.74 5.48 1.82 8.36 0 0 .25 2.81-2.42 9.06-3 7.03-3.07 7-3.07 7s3.12-2.85 5.12-3.48c2-.62 4.41-1.01 7.26-.42 0 0-3.68 1.72-6.12 4.11-2.45 2.39-3.95 4.37-5.04 6.19-1.09 1.82-2.42 4.83-2.44 5.1m-2.77-1.17s-5.06-.35-8.15-2.22c-3.1-1.86-4.92-4.09-6.17-6.34 0 0 3.88-.02 7.43 2 0 0 4.13 2.48 6.88 6.55m-5.38-8.81s-3.99-.44-6.36-6.05c0 0 5.41 1.4 6.36 6.05M0 62.85v-1.31h14.58v1.31c-3.83 0-4.43.77-4.43 5.27v13.15c0 4.5.6 5.27 4.43 5.27h5.31c4.24 0 4.75-1.04 5.35-3.42l.23-.9h1.34l-.37 6.35H0v-1.31c3.83 0 4.38-.77 4.38-5.27V68.12c0-4.5-.55-5.27-4.38-5.27Zm50.47 26.49c-2.12 0-3.29-1.01-3.58-2.66-2.64 2.02-3.81 2.76-5.93 2.76-2.26 0-4.52-1.42-4.52-3.86 0-3.9 4.28-5.6 10.45-6.52v-.05c0-3.4-1.13-4.36-3.06-4.36-1.08 0-2.54.6-2.54 1.79s-.85 1.97-1.88 1.97-1.88-.73-1.88-1.97c0-2.3 3.44-3.67 6.87-3.67 5.22 0 7.44 1.88 7.44 6.24v6.2c0 1.15.38 1.75.99 1.75.56 0 1.04-.32 1.41-.55l.66 1.24c-1.36 1.01-3.29 1.7-4.42 1.7Zm-3.58-8.45c-3.62.92-5.79 1.84-5.79 4.13 0 1.38.89 1.84 1.84 1.84.8 0 2.35-.69 3.95-2.07v-3.9Zm16.41 7.67v-1.31c3.04 0 3.64-.77 3.64-5.27V68.47c0-4.5-.6-5.27-3.64-5.27v-1.31l8.86-1.13v21.2c0 4.5.6 5.27 3.69 5.27v1.31H63.3Zm20.89 0v-1.31c3.05 0 3.64-.77 3.64-5.27V68.47c0-4.5-.6-5.27-3.64-5.27v-1.31l8.86-1.13v21.2c0 4.5.6 5.27 3.69 5.27v1.31H84.19Zm44.2-21.74-6.6 9.72v5.45c0 4.5.55 5.27 4.38 5.27v1.31h-14.39v-1.31c3.83 0 4.43-.77 4.43-5.27v-5.31l-6.69-9.86c-2.17-3.2-3.41-3.96-6.69-3.96v-1.31h15.64v1.31c-3.23 0-4.11 1.04-2.45 3.42l5.17 7.61 5.17-7.61c1.66-2.43 1.15-3.42-2.49-3.42v-1.31h11.16v1.31c-3.83 0-4.71 1.04-6.64 3.96Zm19.1 22.79c-5.22 0-9.51-3.81-9.51-8.45s4.28-8.4 9.51-8.4 9.46 3.77 9.46 8.4-4.28 8.45-9.46 8.45Zm0-14.69c-2.59 0-3.76 2.8-3.76 6.24s1.18 6.29 3.76 6.29 3.72-2.85 3.72-6.29-1.18-6.24-3.72-6.24Zm33.46 14.6c-.24-.46-.61-1.56-.75-2.57-1.22 1.52-3.25 2.66-5.88 2.66-4.24 0-7.29-2.98-7.29-6.89v-2.53c0-4.59-.56-5.33-3.72-5.33v-1.33h9.04v8.59c0 2.98.75 4.91 3.39 4.91 1.88 0 4.33-1.52 4.33-4.55v-2.3c0-4.59-.61-5.33-3.72-5.33v-1.33h9.04v8.45c0 4.59.42 5.33 3.25 5.33v1.15l-7.67 1.06Z" style="fill:#fff"/></svg>